<?xml version="1.0" encoding="UTF-8" standalone="no"?>
<svg width="35.2778mm" height="35.2778mm"
 viewBox="0 0 100 100"
 xmlns="http://www.w3.org/2000/svg" xmlns:xlink="http://www.w3.org/1999/xlink"  version="1.2" baseProfile="tiny">
<title>OBJ_hdk_shake.icon</title>
<desc>Generated with Qt</desc>
<defs>
</defs>
<g fill="none" stroke="black" stroke-width="1" fill-rule="evenodd" stroke-linecap="square" stroke-linejoin="bevel" >

<g fill="none" stroke="#000000" stroke-opacity="1" stroke-width="1" stroke-linecap="square" stroke-linejoin="bevel" transform="matrix(1,0,0,1,0,0)"
font-family="MS Shell Dlg 2" font-size="8.25" font-weight="400" font-style="normal" 
>
</g>

<g fill="#000000" fill-opacity="1" stroke="#000000" stroke-opacity="1" stroke-width="1" stroke-linecap="square" stroke-linejoin="bevel" transform="matrix(1,0,0,1,0,0)"
font-family="MS Shell Dlg 2" font-size="8.25" font-weight="400" font-style="normal" 
>
<polyline fill="none" vector-effect="non-scaling-stroke" points="20.5,42.6 18.7,32.8 18.9,24.2 27.1,13 " />
</g>

<g fill="#cccccc" fill-opacity="1" stroke="#cccccc" stroke-opacity="1" stroke-width="1" stroke-linecap="square" stroke-linejoin="bevel" transform="matrix(1,0,0,1,0,0)"
font-family="MS Shell Dlg 2" font-size="8.25" font-weight="400" font-style="normal" 
>
<polyline fill="none" vector-effect="non-scaling-stroke" points="18.9,81.8 16.1,70.8 19.1,61.8 " />
<polyline fill="none" vector-effect="non-scaling-stroke" points="84.3,81.2 88.1,62.2 86.1,53.2 " />
</g>

<g fill="#000000" fill-opacity="1" stroke="#000000" stroke-opacity="1" stroke-width="1" stroke-linecap="square" stroke-linejoin="bevel" transform="matrix(1,0,0,1,0,0)"
font-family="MS Shell Dlg 2" font-size="8.25" font-weight="400" font-style="normal" 
>
<polyline fill="none" vector-effect="non-scaling-stroke" points="84.1,34 81.3,17 74.5,11.8 " />
</g>

<g fill="#cccccc" fill-opacity="1" stroke="#cccccc" stroke-opacity="1" stroke-width="1" stroke-linecap="square" stroke-linejoin="bevel" transform="matrix(1,0,0,1,0,0)"
font-family="MS Shell Dlg 2" font-size="8.25" font-weight="400" font-style="normal" 
>
<polyline fill="none" vector-effect="non-scaling-stroke" points="88.9,22 87.3,16.8 85.3,11.8 " />
<polyline fill="none" vector-effect="non-scaling-stroke" points="94.8,70.4 94.6,62.6 " />
<polyline fill="none" vector-effect="non-scaling-stroke" points="8.7,75 9.3,64.2 " />
<polyline fill="none" vector-effect="non-scaling-stroke" points="12.3,32 11.1,24.6 14.1,16.2 " />
</g>

<g fill="#000000" fill-opacity="1" stroke="#000000" stroke-opacity="1" stroke-width="1" stroke-linecap="square" stroke-linejoin="bevel" transform="matrix(1,0,0,1,0,0)"
font-family="MS Shell Dlg 2" font-size="8.25" font-weight="400" font-style="normal" 
>
<path vector-effect="non-scaling-stroke" fill-rule="evenodd" d="M38.3,89.4 L25.5,80.2 L27.5,65.8 L43.5,75.2 L38.3,89.4"/>
<path vector-effect="non-scaling-stroke" fill-rule="evenodd" d="M60.9,74.6 L43.5,75.2 L38.3,89.4 L66.5,89.8 L60.9,74.6"/>
<path vector-effect="non-scaling-stroke" fill-rule="evenodd" d="M66.5,89.8 L78.7,73.8 L69.1,66.4 L60.9,74.6 L66.5,89.8"/>
<path vector-effect="non-scaling-stroke" fill-rule="evenodd" d="M67.9,55.8 L76.5,47.2 L78.7,73.8 L69.1,66.4 L67.9,55.8"/>
<path vector-effect="non-scaling-stroke" fill-rule="evenodd" d="M67.9,55.8 L58.9,51 L60.9,40 L76.5,47.2 L67.9,55.8"/>
<path vector-effect="non-scaling-stroke" fill-rule="evenodd" d="M58.9,51 L39.8,50.8 L45.3,39 L60.9,40 L58.9,51"/>
<path vector-effect="non-scaling-stroke" fill-rule="evenodd" d="M39.8,50.8 L27.7,37 L39.9,31.6 L45.3,39 L39.8,50.8"/>
<path vector-effect="non-scaling-stroke" fill-rule="evenodd" d="M30.3,19.8 L45.7,10.4 L44.7,23.4 L39.9,31.6 L27.7,37 L30.3,19.8"/>
<path vector-effect="non-scaling-stroke" fill-rule="evenodd" d="M45.7,10.4 L63.4,12.4 L56.7,21.6 L44.7,23.4 L45.7,10.4"/>
<path vector-effect="non-scaling-stroke" fill-rule="evenodd" d="M56.7,21.6 L64.9,25 L75,21.8 L63.4,12.4 L56.7,21.6"/>
<path vector-effect="non-scaling-stroke" fill-rule="evenodd" d="M64.9,25 L69.9,33.6 L77.1,33.4 L75,21.8 L64.9,25"/>
</g>
</g>
</svg>
